STARTFONT 2.1
COMMENT $XFree86$
COMMENT  
COMMENT  Copyright 1989 Dale Schumacher, dal@syntel.mn.org
COMMENT                 399 Beacon Ave.
COMMENT                 St. Paul, MN  55104-3527
COMMENT  
COMMENT  Permission to use, copy, modify, and distribute this software and
COMMENT  its documentation for any purpose and without fee is hereby
COMMENT  granted, provided that the above copyright notice appear in all
COMMENT  copies and that both that copyright notice and this permission
COMMENT  notice appear in supporting documentation, and that the name of
COMMENT  Dale Schumacher not be used in advertising or publicity pertaining to
COMMENT  distribution of the software without specific, written prior
COMMENT  permission.  Dale Schumacher makes no representations about the
COMMENT  suitability of this software for any purpose.  It is provided "as
COMMENT  is" without express or implied warranty.
COMMENT  
FONT -Schumacher-Clean-Medium-I-Normal--8-80-75-75-C-80-ISO646.1991-IRV
SIZE 8 75 75
FONTBOUNDINGBOX 8 8 0 -1
STARTPROPERTIES 19
FONTNAME_REGISTRY ""
FOUNDRY "Schumacher"
FAMILY_NAME "Clean"
WEIGHT_NAME "Medium"
SLANT "I"
SETWIDTH_NAME "Normal"
ADD_STYLE_NAME ""
PIXEL_SIZE 8
POINT_SIZE 80
RESOLUTION_X 75
RESOLUTION_Y 75
SPACING "C"
AVERAGE_WIDTH 80
CHARSET_REGISTRY "ISO646.1991"
CHARSET_ENCODING "IRV"
FONT_ASCENT 7
FONT_DESCENT 1
DEFAULT_CHAR 0
COPYRIGHT "Copyright 1989 Dale Schumacher."
ENDPROPERTIES
CHARS 128
STARTCHAR C000
ENCODING 0
SWIDTH 666 0
DWIDTH 8 0
BBX 8 8 0 -1
BITMAP
ff
db
00
00
00
81
c3
ff
ENDCHAR
STARTCHAR C001
ENCODING 1
SWIDTH 666 0
DWIDTH 8 0
BBX 8 8 0 -1
BITMAP
08
14
22
77
14
14
14
1c
ENDCHAR
STARTCHAR C002
ENCODING 2
SWIDTH 666 0
DWIDTH 8 0
BBX 8 8 0 -1
BITMAP
1c
14
14
14
77
22
14
08
ENDCHAR
STARTCHAR C003
ENCODING 3
SWIDTH 666 0
DWIDTH 8 0
BBX 8 8 0 -1
BITMAP
08
0c
7a
41
7a
0c
08
00
ENDCHAR
STARTCHAR C004
ENCODING 4
SWIDTH 666 0
DWIDTH 8 0
BBX 8 8 0 -1
BITMAP
08
18
2f
41
2f
18
08
00
ENDCHAR
STARTCHAR C005
ENCODING 5
SWIDTH 666 0
DWIDTH 8 0
BBX 8 8 0 -1
BITMAP
3e
5d
6b
77
6b
5d
3e
00
ENDCHAR
STARTCHAR C006
ENCODING 6
SWIDTH 666 0
DWIDTH 8 0
BBX 8 8 0 -1
BITMAP
7f
7f
7f
7e
7d
7b
77
00
ENDCHAR
STARTCHAR C007
ENCODING 7
SWIDTH 666 0
DWIDTH 8 0
BBX 8 8 0 -1
BITMAP
77
6b
5d
3e
5d
6b
77
00
ENDCHAR
STARTCHAR C010
ENCODING 8
SWIDTH 666 0
DWIDTH 8 0
BBX 8 8 0 -1
BITMAP
60
50
60
53
64
02
01
06
ENDCHAR
STARTCHAR C011
ENCODING 9
SWIDTH 666 0
DWIDTH 8 0
BBX 8 8 0 -1
BITMAP
50
50
70
57
52
02
02
02
ENDCHAR
STARTCHAR C012
ENCODING 10
SWIDTH 666 0
DWIDTH 8 0
BBX 8 8 0 -1
BITMAP
40
40
40
47
74
06
04
04
ENDCHAR
STARTCHAR C013
ENCODING 11
SWIDTH 666 0
DWIDTH 8 0
BBX 8 8 0 -1
BITMAP
50
50
50
27
22
02
02
02
ENDCHAR
STARTCHAR C014
ENCODING 12
SWIDTH 666 0
DWIDTH 8 0
BBX 8 8 0 -1
BITMAP
70
40
60
47
44
06
04
04
ENDCHAR
STARTCHAR C015
ENCODING 13
SWIDTH 666 0
DWIDTH 8 0
BBX 8 8 0 -1
BITMAP
30
40
40
46
35
06
05
05
ENDCHAR
STARTCHAR C016
ENCODING 14
SWIDTH 666 0
DWIDTH 8 0
BBX 8 8 0 -1
BITMAP
05
05
05
0d
0d
19
79
71
ENDCHAR
STARTCHAR C017
ENCODING 15
SWIDTH 666 0
DWIDTH 8 0
BBX 8 8 0 -1
BITMAP
a0
a0
a0
b0
b0
98
9e
8e
ENDCHAR
STARTCHAR C020
ENCODING 16
SWIDTH 666 0
DWIDTH 8 0
BBX 8 8 0 -1
BITMAP
18
66
66
00
66
66
18
00
ENDCHAR
STARTCHAR C021
ENCODING 17
SWIDTH 666 0
DWIDTH 8 0
BBX 8 8 0 -1
BITMAP
00
06
06
00
06
06
00
00
ENDCHAR
STARTCHAR C022
ENCODING 18
SWIDTH 666 0
DWIDTH 8 0
BBX 8 8 0 -1
BITMAP
18
06
06
18
60
60
18
00
ENDCHAR
STARTCHAR C023
ENCODING 19
SWIDTH 666 0
DWIDTH 8 0
BBX 8 8 0 -1
BITMAP
18
06
06
18
06
06
18
00
ENDCHAR
STARTCHAR C024
ENCODING 20
SWIDTH 666 0
DWIDTH 8 0
BBX 8 8 0 -1
BITMAP
00
66
66
18
06
06
00
00
ENDCHAR
STARTCHAR C025
ENCODING 21
SWIDTH 666 0
DWIDTH 8 0
BBX 8 8 0 -1
BITMAP
18
60
60
18
06
06
18
00
ENDCHAR
STARTCHAR C026
ENCODING 22
SWIDTH 666 0
DWIDTH 8 0
BBX 8 8 0 -1
BITMAP
18
60
60
18
66
66
18
00
ENDCHAR
STARTCHAR C027
ENCODING 23
SWIDTH 666 0
DWIDTH 8 0
BBX 8 8 0 -1
BITMAP
18
06
06
00
06
06
00
00
ENDCHAR
STARTCHAR C030
ENCODING 24
SWIDTH 666 0
DWIDTH 8 0
BBX 8 8 0 -1
BITMAP
18
66
66
18
66
66
18
00
ENDCHAR
STARTCHAR C031
ENCODING 25
SWIDTH 666 0
DWIDTH 8 0
BBX 8 8 0 -1
BITMAP
18
66
66
18
06
06
18
00
ENDCHAR
STARTCHAR C032
ENCODING 26
SWIDTH 666 0
DWIDTH 8 0
BBX 8 8 0 -1
BITMAP
00
00
1e
03
ff
c6
78
00
ENDCHAR
STARTCHAR C033
ENCODING 27
SWIDTH 666 0
DWIDTH 8 0
BBX 8 8 0 -1
BITMAP
70
40
70
43
74
04
04
03
ENDCHAR
STARTCHAR C034
ENCODING 28
SWIDTH 666 0
DWIDTH 8 0
BBX 8 8 0 -1
BITMAP
07
0f
1f
18
18
10
1e
17
ENDCHAR
STARTCHAR C035
ENCODING 29
SWIDTH 666 0
DWIDTH 8 0
BBX 8 8 0 -1
BITMAP
f0
f8
ec
04
04
04
3c
54
ENDCHAR
STARTCHAR C036
ENCODING 30
SWIDTH 666 0
DWIDTH 8 0
BBX 8 8 0 -1
BITMAP
11
0b
0d
06
07
2e
39
38
ENDCHAR
STARTCHAR C037
ENCODING 31
SWIDTH 666 0
DWIDTH 8 0
BBX 8 8 0 -1
BITMAP
04
28
d8
28
d0
10
e0
00
ENDCHAR
STARTCHAR C040
ENCODING 32
SWIDTH 666 0
DWIDTH 8 0
BBX 8 8 0 -1
BITMAP
00
00
00
00
00
00
00
00
ENDCHAR
STARTCHAR !
ENCODING 33
SWIDTH 666 0
DWIDTH 8 0
BBX 8 8 0 -1
BITMAP
06
0c
0c
18
18
00
30
00
ENDCHAR
STARTCHAR "
ENCODING 34
SWIDTH 666 0
DWIDTH 8 0
BBX 8 8 0 -1
BITMAP
36
6c
00
00
00
00
00
00
ENDCHAR
STARTCHAR #
ENCODING 35
SWIDTH 666 0
DWIDTH 8 0
BBX 8 8 0 -1
BITMAP
00
1b
7f
36
7f
6c
00
00
ENDCHAR
STARTCHAR $
ENCODING 36
SWIDTH 666 0
DWIDTH 8 0
BBX 8 8 0 -1
BITMAP
0c
1e
30
18
0c
78
30
00
ENDCHAR
STARTCHAR %
ENCODING 37
SWIDTH 666 0
DWIDTH 8 0
BBX 8 8 0 -1
BITMAP
30
33
0e
18
70
cc
0c
00
ENDCHAR
STARTCHAR &
ENCODING 38
SWIDTH 666 0
DWIDTH 8 0
BBX 8 8 0 -1
BITMAP
1e
30
30
7b
ce
cc
76
00
ENDCHAR
STARTCHAR '
ENCODING 39
SWIDTH 666 0
DWIDTH 8 0
BBX 8 8 0 -1
BITMAP
0c
18
00
00
00
00
00
00
ENDCHAR
STARTCHAR (
ENCODING 40
SWIDTH 666 0
DWIDTH 8 0
BBX 8 8 0 -1
BITMAP
03
0c
18
18
18
18
0c
00
ENDCHAR
STARTCHAR )
ENCODING 41
SWIDTH 666 0
DWIDTH 8 0
BBX 8 8 0 -1
BITMAP
18
0c
0c
0c
0c
18
60
00
ENDCHAR
STARTCHAR *
ENCODING 42
SWIDTH 666 0
DWIDTH 8 0
BBX 8 8 0 -1
BITMAP
00
1b
0c
7f
18
6c
00
00
ENDCHAR
STARTCHAR +
ENCODING 43
SWIDTH 666 0
DWIDTH 8 0
BBX 8 8 0 -1
BITMAP
00
0c
0c
7f
18
18
00
00
ENDCHAR
STARTCHAR ,
ENCODING 44
SWIDTH 666 0
DWIDTH 8 0
BBX 8 8 0 -1
BITMAP
00
00
00
00
00
18
18
30
ENDCHAR
STARTCHAR -
ENCODING 45
SWIDTH 666 0
DWIDTH 8 0
BBX 8 8 0 -1
BITMAP
00
00
00
7f
00
00
00
00
ENDCHAR
STARTCHAR .
ENCODING 46
SWIDTH 666 0
DWIDTH 8 0
BBX 8 8 0 -1
BITMAP
00
00
00
00
00
18
18
00
ENDCHAR
STARTCHAR /
ENCODING 47
SWIDTH 666 0
DWIDTH 8 0
BBX 8 8 0 -1
BITMAP
03
06
0c
18
30
60
c0
00
ENDCHAR
STARTCHAR 0
ENCODING 48
SWIDTH 666 0
DWIDTH 8 0
BBX 8 8 0 -1
BITMAP
1e
33
63
66
c6
cc
78
00
ENDCHAR
STARTCHAR 1
ENCODING 49
SWIDTH 666 0
DWIDTH 8 0
BBX 8 8 0 -1
BITMAP
0c
1c
0c
18
18
30
30
00
ENDCHAR
STARTCHAR 2
ENCODING 50
SWIDTH 666 0
DWIDTH 8 0
BBX 8 8 0 -1
BITMAP
1e
33
06
0c
30
60
fc
00
ENDCHAR
STARTCHAR 3
ENCODING 51
SWIDTH 666 0
DWIDTH 8 0
BBX 8 8 0 -1
BITMAP
1e
33
06
0c
06
cc
78
00
ENDCHAR
STARTCHAR 4
ENCODING 52
SWIDTH 666 0
DWIDTH 8 0
BBX 8 8 0 -1
BITMAP
06
0e
3c
6c
fe
18
3c
00
ENDCHAR
STARTCHAR 5
ENCODING 53
SWIDTH 666 0
DWIDTH 8 0
BBX 8 8 0 -1
BITMAP
1f
30
7c
06
06
cc
78
00
ENDCHAR
STARTCHAR 6
ENCODING 54
SWIDTH 666 0
DWIDTH 8 0
BBX 8 8 0 -1
BITMAP
07
18
30
7c
c6
cc
78
00
ENDCHAR
STARTCHAR 7
ENCODING 55
SWIDTH 666 0
DWIDTH 8 0
BBX 8 8 0 -1
BITMAP
3f
63
06
0c
18
30
60
00
ENDCHAR
STARTCHAR 8
ENCODING 56
SWIDTH 666 0
DWIDTH 8 0
BBX 8 8 0 -1
BITMAP
1e
33
36
3c
6c
cc
78
00
ENDCHAR
STARTCHAR 9
ENCODING 57
SWIDTH 666 0
DWIDTH 8 0
BBX 8 8 0 -1
BITMAP
1e
33
63
3e
0c
18
e0
00
ENDCHAR
STARTCHAR :
ENCODING 58
SWIDTH 666 0
DWIDTH 8 0
BBX 8 8 0 -1
BITMAP
00
0c
0c
00
00
30
30
00
ENDCHAR
STARTCHAR ;
ENCODING 59
SWIDTH 666 0
DWIDTH 8 0
BBX 8 8 0 -1
BITMAP
00
0c
0c
00
00
30
30
60
ENDCHAR
STARTCHAR <
ENCODING 60
SWIDTH 666 0
DWIDTH 8 0
BBX 8 8 0 -1
BITMAP
00
07
1c
70
38
1c
00
00
ENDCHAR
STARTCHAR =
ENCODING 61
SWIDTH 666 0
DWIDTH 8 0
BBX 8 8 0 -1
BITMAP
00
00
7f
00
fe
00
00
00
ENDCHAR
STARTCHAR >
ENCODING 62
SWIDTH 666 0
DWIDTH 8 0
BBX 8 8 0 -1
BITMAP
00
1c
0e
07
1c
70
00
00
ENDCHAR
STARTCHAR ?
ENCODING 63
SWIDTH 666 0
DWIDTH 8 0
BBX 8 8 0 -1
BITMAP
1e
63
06
18
30
00
60
00
ENDCHAR
STARTCHAR @
ENCODING 64
SWIDTH 666 0
DWIDTH 8 0
BBX 8 8 0 -1
BITMAP
1e
21
2f
52
5c
40
3c
00
ENDCHAR
STARTCHAR A
ENCODING 65
SWIDTH 666 0
DWIDTH 8 0
BBX 8 8 0 -1
BITMAP
06
0e
1e
16
3e
66
e7
00
ENDCHAR
STARTCHAR B
ENCODING 66
SWIDTH 666 0
DWIDTH 8 0
BBX 8 8 0 -1
BITMAP
3e
33
66
7c
66
cc
f8
00
ENDCHAR
STARTCHAR C
ENCODING 67
SWIDTH 666 0
DWIDTH 8 0
BBX 8 8 0 -1
BITMAP
0e
33
60
c0
c0
cc
70
00
ENDCHAR
STARTCHAR D
ENCODING 68
SWIDTH 666 0
DWIDTH 8 0
BBX 8 8 0 -1
BITMAP
3e
33
63
63
66
cc
f8
00
ENDCHAR
STARTCHAR E
ENCODING 69
SWIDTH 666 0
DWIDTH 8 0
BBX 8 8 0 -1
BITMAP
3f
30
60
7c
60
c0
fc
00
ENDCHAR
STARTCHAR F
ENCODING 70
SWIDTH 666 0
DWIDTH 8 0
BBX 8 8 0 -1
BITMAP
3f
30
60
7c
60
c0
c0
00
ENDCHAR
STARTCHAR G
ENCODING 71
SWIDTH 666 0
DWIDTH 8 0
BBX 8 8 0 -1
BITMAP
0e
33
60
c0
de
cc
78
00
ENDCHAR
STARTCHAR H
ENCODING 72
SWIDTH 666 0
DWIDTH 8 0
BBX 8 8 0 -1
BITMAP
33
33
66
7e
66
cc
cc
00
ENDCHAR
STARTCHAR I
ENCODING 73
SWIDTH 666 0
DWIDTH 8 0
BBX 8 8 0 -1
BITMAP
1f
0c
18
18
18
30
f8
00
ENDCHAR
STARTCHAR J
ENCODING 74
SWIDTH 666 0
DWIDTH 8 0
BBX 8 8 0 -1
BITMAP
0f
03
03
06
66
cc
78
00
ENDCHAR
STARTCHAR K
ENCODING 75
SWIDTH 666 0
DWIDTH 8 0
BBX 8 8 0 -1
BITMAP
33
36
6c
78
6c
cc
c6
00
ENDCHAR
STARTCHAR L
ENCODING 76
SWIDTH 666 0
DWIDTH 8 0
BBX 8 8 0 -1
BITMAP
18
18
30
30
60
60
7e
00
ENDCHAR
STARTCHAR M
ENCODING 77
SWIDTH 666 0
DWIDTH 8 0
BBX 8 8 0 -1
BITMAP
3b
3f
6b
66
66
cc
cc
00
ENDCHAR
STARTCHAR N
ENCODING 78
SWIDTH 666 0
DWIDTH 8 0
BBX 8 8 0 -1
BITMAP
33
3b
7e
6e
66
cc
cc
00
ENDCHAR
STARTCHAR O
ENCODING 79
SWIDTH 666 0
DWIDTH 8 0
BBX 8 8 0 -1
BITMAP
0e
33
63
c3
c6
cc
70
00
ENDCHAR
STARTCHAR P
ENCODING 80
SWIDTH 666 0
DWIDTH 8 0
BBX 8 8 0 -1
BITMAP
3e
33
66
7c
60
c0
c0
00
ENDCHAR
STARTCHAR Q
ENCODING 81
SWIDTH 666 0
DWIDTH 8 0
BBX 8 8 0 -1
BITMAP
0e
33
63
c3
c6
cc
70
18
ENDCHAR
STARTCHAR R
ENCODING 82
SWIDTH 666 0
DWIDTH 8 0
BBX 8 8 0 -1
BITMAP
3e
33
66
7c
78
cc
cc
00
ENDCHAR
STARTCHAR S
ENCODING 83
SWIDTH 666 0
DWIDTH 8 0
BBX 8 8 0 -1
BITMAP
1e
33
30
18
0c
cc
78
00
ENDCHAR
STARTCHAR T
ENCODING 84
SWIDTH 666 0
DWIDTH 8 0
BBX 8 8 0 -1
BITMAP
7e
18
18
30
30
60
60
00
ENDCHAR
STARTCHAR U
ENCODING 85
SWIDTH 666 0
DWIDTH 8 0
BBX 8 8 0 -1
BITMAP
33
33
66
66
cc
cc
70
00
ENDCHAR
STARTCHAR V
ENCODING 86
SWIDTH 666 0
DWIDTH 8 0
BBX 8 8 0 -1
BITMAP
33
33
66
6c
78
70
60
00
ENDCHAR
STARTCHAR W
ENCODING 87
SWIDTH 666 0
DWIDTH 8 0
BBX 8 8 0 -1
BITMAP
33
33
63
66
d6
fc
d8
00
ENDCHAR
STARTCHAR X
ENCODING 88
SWIDTH 666 0
DWIDTH 8 0
BBX 8 8 0 -1
BITMAP
33
33
1c
18
38
cc
cc
00
ENDCHAR
STARTCHAR Y
ENCODING 89
SWIDTH 666 0
DWIDTH 8 0
BBX 8 8 0 -1
BITMAP
33
33
3c
18
18
30
30
00
ENDCHAR
STARTCHAR Z
ENCODING 90
SWIDTH 666 0
DWIDTH 8 0
BBX 8 8 0 -1
BITMAP
1f
03
06
18
60
c0
f8
00
ENDCHAR
STARTCHAR [
ENCODING 91
SWIDTH 666 0
DWIDTH 8 0
BBX 8 8 0 -1
BITMAP
0f
0c
18
18
18
30
3c
00
ENDCHAR
STARTCHAR \
ENCODING 92
SWIDTH 666 0
DWIDTH 8 0
BBX 8 8 0 -1
BITMAP
60
30
30
18
0c
0c
06
00
ENDCHAR
STARTCHAR ]
ENCODING 93
SWIDTH 666 0
DWIDTH 8 0
BBX 8 8 0 -1
BITMAP
1e
06
0c
0c
0c
18
78
00
ENDCHAR
STARTCHAR ^
ENCODING 94
SWIDTH 666 0
DWIDTH 8 0
BBX 8 8 0 -1
BITMAP
0c
36
c3
00
00
00
00
00
ENDCHAR
STARTCHAR _
ENCODING 95
SWIDTH 666 0
DWIDTH 8 0
BBX 8 8 0 -1
BITMAP
00
00
00
00
00
00
7f
00
ENDCHAR
STARTCHAR `
ENCODING 96
SWIDTH 666 0
DWIDTH 8 0
BBX 8 8 0 -1
BITMAP
18
0c
00
00
00
00
00
00
ENDCHAR
STARTCHAR a
ENCODING 97
SWIDTH 666 0
DWIDTH 8 0
BBX 8 8 0 -1
BITMAP
00
00
1f
63
c3
ce
76
00
ENDCHAR
STARTCHAR b
ENCODING 98
SWIDTH 666 0
DWIDTH 8 0
BBX 8 8 0 -1
BITMAP
18
30
3e
63
63
c6
fc
00
ENDCHAR
STARTCHAR c
ENCODING 99
SWIDTH 666 0
DWIDTH 8 0
BBX 8 8 0 -1
BITMAP
00
00
1e
60
c0
c0
7c
00
ENDCHAR
STARTCHAR d
ENCODING 100
SWIDTH 666 0
DWIDTH 8 0
BBX 8 8 0 -1
BITMAP
03
03
3f
66
c6
cc
7c
00
ENDCHAR
STARTCHAR e
ENCODING 101
SWIDTH 666 0
DWIDTH 8 0
BBX 8 8 0 -1
BITMAP
00
00
1e
63
ff
c0
78
00
ENDCHAR
STARTCHAR f
ENCODING 102
SWIDTH 666 0
DWIDTH 8 0
BBX 8 8 0 -1
BITMAP
07
18
7e
30
60
60
c0
00
ENDCHAR
STARTCHAR g
ENCODING 103
SWIDTH 666 0
DWIDTH 8 0
BBX 8 8 0 -1
BITMAP
00
00
1f
63
c6
7e
0c
f8
ENDCHAR
STARTCHAR h
ENCODING 104
SWIDTH 666 0
DWIDTH 8 0
BBX 8 8 0 -1
BITMAP
18
30
3e
63
63
c6
c6
00
ENDCHAR
STARTCHAR i
ENCODING 105
SWIDTH 666 0
DWIDTH 8 0
BBX 8 8 0 -1
BITMAP
06
00
3c
0c
18
18
7e
00
ENDCHAR
STARTCHAR j
ENCODING 106
SWIDTH 666 0
DWIDTH 8 0
BBX 8 8 0 -1
BITMAP
06
00
3c
0c
0c
18
18
f0
ENDCHAR
STARTCHAR k
ENCODING 107
SWIDTH 666 0
DWIDTH 8 0
BBX 8 8 0 -1
BITMAP
18
30
33
6c
78
cc
c6
00
ENDCHAR
STARTCHAR l
ENCODING 108
SWIDTH 666 0
DWIDTH 8 0
BBX 8 8 0 -1
BITMAP
1c
0c
18
18
30
30
78
00
ENDCHAR
STARTCHAR m
ENCODING 109
SWIDTH 666 0
DWIDTH 8 0
BBX 8 8 0 -1
BITMAP
00
00
36
7f
6b
c6
c6
00
ENDCHAR
STARTCHAR n
ENCODING 110
SWIDTH 666 0
DWIDTH 8 0
BBX 8 8 0 -1
BITMAP
00
00
6e
73
63
c6
c6
00
ENDCHAR
STARTCHAR o
ENCODING 111
SWIDTH 666 0
DWIDTH 8 0
BBX 8 8 0 -1
BITMAP
00
00
1e
63
c3
c6
78
00
ENDCHAR
STARTCHAR p
ENCODING 112
SWIDTH 666 0
DWIDTH 8 0
BBX 8 8 0 -1
BITMAP
00
00
1e
33
63
66
f8
c0
ENDCHAR
STARTCHAR q
ENCODING 113
SWIDTH 666 0
DWIDTH 8 0
BBX 8 8 0 -1
BITMAP
00
00
1f
33
63
66
3e
0c
ENDCHAR
STARTCHAR r
ENCODING 114
SWIDTH 666 0
DWIDTH 8 0
BBX 8 8 0 -1
BITMAP
00
00
37
78
60
c0
c0
00
ENDCHAR
STARTCHAR s
ENCODING 115
SWIDTH 666 0
DWIDTH 8 0
BBX 8 8 0 -1
BITMAP
00
00
1f
30
18
0c
f8
00
ENDCHAR
STARTCHAR t
ENCODING 116
SWIDTH 666 0
DWIDTH 8 0
BBX 8 8 0 -1
BITMAP
0c
18
fe
30
60
60
38
00
ENDCHAR
STARTCHAR u
ENCODING 117
SWIDTH 666 0
DWIDTH 8 0
BBX 8 8 0 -1
BITMAP
00
00
63
63
c6
ce
76
00
ENDCHAR
STARTCHAR v
ENCODING 118
SWIDTH 666 0
DWIDTH 8 0
BBX 8 8 0 -1
BITMAP
00
00
e7
66
6c
38
30
00
ENDCHAR
STARTCHAR w
ENCODING 119
SWIDTH 666 0
DWIDTH 8 0
BBX 8 8 0 -1
BITMAP
00
00
63
63
d6
fe
ec
00
ENDCHAR
STARTCHAR x
ENCODING 120
SWIDTH 666 0
DWIDTH 8 0
BBX 8 8 0 -1
BITMAP
00
00
33
1c
38
78
cc
00
ENDCHAR
STARTCHAR y
ENCODING 121
SWIDTH 666 0
DWIDTH 8 0
BBX 8 8 0 -1
BITMAP
00
00
33
66
66
3c
0c
78
ENDCHAR
STARTCHAR z
ENCODING 122
SWIDTH 666 0
DWIDTH 8 0
BBX 8 8 0 -1
BITMAP
00
00
3f
06
18
60
fc
00
ENDCHAR
STARTCHAR {
ENCODING 123
SWIDTH 666 0
DWIDTH 8 0
BBX 8 8 0 -1
BITMAP
07
18
18
70
30
30
1c
00
ENDCHAR
STARTCHAR |
ENCODING 124
SWIDTH 666 0
DWIDTH 8 0
BBX 8 8 0 -1
BITMAP
0c
0c
18
18
18
30
30
00
ENDCHAR
STARTCHAR }
ENCODING 125
SWIDTH 666 0
DWIDTH 8 0
BBX 8 8 0 -1
BITMAP
1c
06
06
07
0c
0c
70
00
ENDCHAR
STARTCHAR ~
ENCODING 126
SWIDTH 666 0
DWIDTH 8 0
BBX 8 8 0 -1
BITMAP
30
db
0c
00
00
00
00
00
ENDCHAR
STARTCHAR C177
ENCODING 127
SWIDTH 666 0
DWIDTH 8 0
BBX 8 8 0 -1
BITMAP
00
06
0e
1a
32
62
fe
00
ENDCHAR
ENDFONT
